<svg xmlns="http://www.w3.org/2000/svg" viewBox="0 0 64 64"><rect x="9" y="9" width="40" height="40" rx="3" fill="#f9a8c4" transform="rotate(-11 29 29)"/><rect x="14" y="11" width="40" height="40" rx="3" fill="#8cc8f2" transform="rotate(8 34 31)"/><path d="M14 19a3 3 0 0 1 3-3h35a3 3 0 0 1 3 3v24L43 55H17a3 3 0 0 1-3-3z" fill="#fdd94e"/><path d="M55 43h-9a3 3 0 0 0-3 3v9z" fill="#d9a514"/><path d="M23 28h23M23 37h14" fill="none" stroke="#7a5d00" stroke-width="3.2" stroke-linecap="round" opacity=".5"/></svg>
